<svg xmlns="http://www.w3.org/2000/svg" enable-background="new 0 0 24 24" viewBox="0 0 24 24"><path fill="#9BA5CA" d="M21.9,21.1l-19-19C2.7,2,2.4,2,2.2,2.1C2,2.3,2,2.7,2.1,2.9l4.5,4.5C6.2,8.2,6,9.1,6,10v4.1c-1.1,0.2-2,1.2-2,2.4v2C4,18.8,4.2,19,4.5,19h3.7c0.5,1.7,2,3,3.8,3c1.8,0,3.4-1.3,3.8-3h2.5l2.9,2.9c0.1,0.1,0.2,0.1,0.4,0.1c0.1,0,0.3-0.1,0.4-0.1C22,21.7,22,21.3,21.9,21.1z M7,10c0-0.7,0.1-1.3,0.4-1.9l5.9,5.9H7V10z M13,20.8c-1.6,0.5-3.3-0.3-3.8-1.8h5.6C14.5,19.9,13.8,20.5,13,20.8z M5,18v-1.5C5,15.7,5.7,15,6.5,15h7.8l3,3H5z M9.6,5.6c1.9-1,4.3-0.7,5.9,0.9C16.5,7.4,17,8.7,17,10v3.3c0,0.3,0.2,0.5,0.5,0.5h0c0.3,0,0.5-0.2,0.5-0.5V10c0-3.1-2.4-5.7-5.5-6V2.5C12.5,2.2,12.3,2,12,2s-0.5,0.2-0.5,0.5V4c-0.8,0.1-1.6,0.3-2.3,0.7c0,0,0,0,0,0C8.9,4.8,8.8,5.1,9,5.4C9.1,5.6,9.4,5.7,9.6,5.6z"/></svg>